<svg id="visual" viewBox="0 0 900 600" width="900" height="600" xmlns="http://www.w3.org/2000/svg" xmlns:xlink="http://www.w3.org/1999/xlink" version="1.1"><rect x="0" y="0" width="900" height="600" fill="#002233"></rect><path d="M0 466L25 453.5C50 441 100 416 150 399.2C200 382.3 250 373.7 300 384.5C350 395.3 400 425.7 450 433.3C500 441 550 426 600 413.5C650 401 700 391 750 389.2C800 387.3 850 393.7 875 396.8L900 400L900 601L875 601C850 601 800 601 750 601C700 601 650 601 600 601C550 601 500 601 450 601C400 601 350 601 300 601C250 601 200 601 150 601C100 601 50 601 25 601L0 601Z" fill="#0066FF" stroke-linecap="round" stroke-linejoin="miter"></path></svg>